<?xml version="1.0" encoding="utf-8"?>
<!-- Generator: Adobe Illustrator 19.1.0, SVG Export Plug-In . SVG Version: 6.00 Build 0)  -->
<svg version="1.1" xmlns="http://www.w3.org/2000/svg" xmlns:xlink="http://www.w3.org/1999/xlink" x="0px" y="0px"
	 viewBox="0 0 800 800" style="enable-background:new 0 0 800 800;" xml:space="preserve">
<style type="text/css">
	.st0{display:none;}
	.st1{display:inline;fill:url(#SVGID_1_);}
	.st2{display:inline;}
	.st3{fill:#9E9E9E;}
	.st4{fill:#4C4C4C;}
	.st5{fill:#FEFEFE;}
	.st6{fill:#FBFBFB;}
	.st7{fill:#FCFCFC;}
	.st8{fill:#DFDFDF;}
	.st9{fill-rule:evenodd;clip-rule:evenodd;fill:#565656;stroke:#4C4C4C;stroke-miterlimit:10;}
	.st10{fill:#565656;}
	.st11{fill:#565656;stroke:#4C4C4C;stroke-miterlimit:10;}
	.st12{fill:#FFFFFF;}
	.st13{fill:#A8A8A8;}
	.st14{fill:#7C7C79;}
	.st15{fill:none;stroke:#4C4C4C;stroke-width:4;stroke-miterlimit:10;}
</style>
<g id="Background" class="st0">
	<radialGradient id="SVGID_1_" cx="400.0905" cy="400.5381" r="877.4548" gradientUnits="userSpaceOnUse">
		<stop  offset="0" style="stop-color:#FFFFFF"/>
		<stop  offset="1" style="stop-color:#C2C3C9"/>
	</radialGradient>
	<rect x="-0.9" y="-0.9" class="st1" width="802" height="802.8"/>
	<g class="st2">
		<g>
			<path class="st3" d="M307.7,769.4v-0.2c-0.3,0.3-0.6,0.6-0.9,0.8c-0.3,0.2-0.6,0.4-0.9,0.5c-0.3,0.1-0.7,0.2-1.1,0.2
				c-0.5,0-1-0.1-1.4-0.3c-0.4-0.2-0.8-0.5-1.1-0.9c-0.3-0.4-0.6-0.9-0.7-1.4c-0.2-0.5-0.2-1.1-0.2-1.8c0-1.3,0.3-2.4,1-3.1
				c0.7-0.7,1.5-1.1,2.6-1.1c0.6,0,1.1,0.1,1.6,0.3c0.4,0.2,0.8,0.5,1.2,1V760c0-0.4,0.1-0.8,0.3-1c0.2-0.2,0.4-0.3,0.7-0.3
				c0.3,0,0.6,0.1,0.7,0.3c0.2,0.2,0.3,0.5,0.3,0.9v9.5c0,0.4-0.1,0.7-0.3,0.9c-0.2,0.2-0.4,0.3-0.7,0.3c-0.3,0-0.5-0.1-0.7-0.3
				C307.8,770,307.7,769.7,307.7,769.4z M303.5,766.2c0,0.6,0.1,1.1,0.3,1.5c0.2,0.4,0.4,0.7,0.7,0.9c0.3,0.2,0.7,0.3,1,0.3
				c0.4,0,0.7-0.1,1-0.3c0.3-0.2,0.6-0.5,0.7-0.9c0.2-0.4,0.3-0.9,0.3-1.5c0-0.6-0.1-1.1-0.3-1.5c-0.2-0.4-0.4-0.7-0.8-0.9
				c-0.3-0.2-0.7-0.3-1-0.3c-0.4,0-0.7,0.1-1.1,0.3c-0.3,0.2-0.5,0.5-0.7,1C303.6,765.2,303.5,765.7,303.5,766.2z"/>
			<path class="st3" d="M317.2,766.7H313c0,0.5,0.1,0.9,0.3,1.3c0.2,0.4,0.4,0.7,0.8,0.8c0.3,0.2,0.7,0.3,1,0.3c0.3,0,0.5,0,0.7-0.1
				c0.2-0.1,0.4-0.2,0.6-0.3c0.2-0.1,0.4-0.3,0.5-0.4c0.2-0.1,0.4-0.3,0.7-0.6c0.1-0.1,0.3-0.1,0.5-0.1c0.2,0,0.4,0.1,0.5,0.2
				c0.1,0.1,0.2,0.3,0.2,0.5c0,0.2-0.1,0.4-0.2,0.7c-0.2,0.3-0.4,0.5-0.7,0.7c-0.3,0.2-0.7,0.4-1.2,0.6c-0.5,0.2-1,0.2-1.6,0.2
				c-1.4,0-2.4-0.4-3.2-1.2c-0.8-0.8-1.1-1.9-1.1-3.2c0-0.6,0.1-1.2,0.3-1.8c0.2-0.5,0.5-1,0.8-1.4c0.4-0.4,0.8-0.7,1.3-0.9
				c0.5-0.2,1.1-0.3,1.8-0.3c0.8,0,1.6,0.2,2.2,0.5c0.6,0.4,1,0.8,1.3,1.4c0.3,0.6,0.4,1.1,0.4,1.7c0,0.5-0.2,0.9-0.5,1
				C318.2,766.7,317.7,766.7,317.2,766.7z M313,765.5h3.9c-0.1-0.7-0.3-1.3-0.6-1.6c-0.3-0.4-0.8-0.5-1.4-0.5c-0.5,0-1,0.2-1.3,0.6
				C313.3,764.3,313.1,764.8,313,765.5z"/>
			<path class="st3" d="M326.9,767.8c0,0.6-0.1,1.1-0.4,1.5c-0.3,0.4-0.7,0.7-1.3,1c-0.6,0.2-1.2,0.3-2.1,0.3c-0.8,0-1.4-0.1-2-0.4
				c-0.5-0.2-1-0.5-1.2-0.9c-0.3-0.4-0.4-0.7-0.4-1.1c0-0.2,0.1-0.4,0.3-0.6c0.2-0.2,0.4-0.3,0.6-0.3c0.2,0,0.4,0.1,0.5,0.2
				c0.1,0.1,0.2,0.3,0.3,0.5c0.2,0.4,0.5,0.7,0.8,0.9c0.3,0.2,0.7,0.3,1.3,0.3c0.4,0,0.8-0.1,1.1-0.3c0.3-0.2,0.4-0.4,0.4-0.7
				c0-0.4-0.1-0.7-0.4-0.8c-0.3-0.2-0.8-0.3-1.4-0.5c-0.7-0.2-1.3-0.4-1.8-0.6c-0.5-0.2-0.8-0.5-1.1-0.8c-0.3-0.3-0.4-0.7-0.4-1.2
				c0-0.4,0.1-0.8,0.4-1.2c0.3-0.4,0.6-0.7,1.1-0.9c0.5-0.2,1.1-0.3,1.8-0.3c0.6,0,1.1,0.1,1.5,0.2c0.4,0.1,0.8,0.3,1.1,0.5
				c0.3,0.2,0.5,0.4,0.7,0.6c0.2,0.2,0.2,0.5,0.2,0.7c0,0.2-0.1,0.4-0.2,0.6c-0.2,0.2-0.4,0.2-0.7,0.2c-0.2,0-0.4-0.1-0.6-0.2
				c-0.2-0.1-0.3-0.3-0.5-0.6c-0.2-0.2-0.4-0.4-0.6-0.5c-0.2-0.1-0.5-0.2-0.9-0.2c-0.4,0-0.7,0.1-1,0.2c-0.3,0.2-0.4,0.4-0.4,0.6
				c0,0.2,0.1,0.4,0.3,0.6c0.2,0.1,0.4,0.3,0.8,0.4c0.3,0.1,0.8,0.2,1.3,0.3c0.7,0.2,1.2,0.4,1.6,0.6c0.4,0.2,0.7,0.5,1,0.8
				C326.8,767,326.9,767.4,326.9,767.8z"/>
			<path class="st3" d="M329.1,760.9c-0.3,0-0.6-0.1-0.8-0.3c-0.2-0.2-0.3-0.4-0.3-0.8c0-0.3,0.1-0.6,0.3-0.8
				c0.2-0.2,0.5-0.3,0.8-0.3c0.3,0,0.5,0.1,0.7,0.3c0.2,0.2,0.3,0.4,0.3,0.8c0,0.3-0.1,0.6-0.3,0.8
				C329.7,760.8,329.4,760.9,329.1,760.9z M330.2,763.1v6.2c0,0.4-0.1,0.8-0.3,1c-0.2,0.2-0.5,0.3-0.8,0.3c-0.3,0-0.6-0.1-0.8-0.3
				c-0.2-0.2-0.3-0.5-0.3-1v-6.1c0-0.4,0.1-0.7,0.3-1c0.2-0.2,0.5-0.3,0.8-0.3c0.3,0,0.6,0.1,0.8,0.3
				C330.1,762.4,330.2,762.7,330.2,763.1z"/>
			<path class="st3" d="M339.6,763.4v6.2c0,0.7-0.1,1.3-0.2,1.8c-0.2,0.5-0.4,0.9-0.7,1.3c-0.3,0.3-0.8,0.6-1.3,0.7
				c-0.5,0.2-1.2,0.2-2,0.2c-0.7,0-1.4-0.1-2-0.3c-0.6-0.2-1-0.5-1.3-0.8c-0.3-0.3-0.5-0.7-0.5-1c0-0.3,0.1-0.5,0.3-0.6
				c0.2-0.2,0.4-0.2,0.6-0.2c0.3,0,0.6,0.1,0.8,0.4c0.1,0.1,0.2,0.3,0.4,0.4c0.1,0.1,0.3,0.3,0.4,0.4c0.1,0.1,0.3,0.2,0.5,0.2
				c0.2,0,0.5,0.1,0.7,0.1c0.6,0,1-0.1,1.3-0.2c0.3-0.2,0.5-0.4,0.6-0.6c0.1-0.3,0.2-0.6,0.2-0.9c0-0.3,0-0.8,0-1.5
				c-0.3,0.5-0.7,0.8-1.1,1.1c-0.4,0.2-0.9,0.4-1.5,0.4c-0.7,0-1.3-0.2-1.9-0.5c-0.5-0.4-0.9-0.9-1.2-1.5c-0.3-0.7-0.4-1.4-0.4-2.3
				c0-0.6,0.1-1.2,0.3-1.7c0.2-0.5,0.4-1,0.7-1.3c0.3-0.4,0.7-0.6,1.1-0.8c0.4-0.2,0.9-0.3,1.4-0.3c0.6,0,1.1,0.1,1.6,0.3
				c0.4,0.2,0.9,0.6,1.2,1.1V763c0-0.4,0.1-0.7,0.3-0.9c0.2-0.2,0.4-0.3,0.7-0.3c0.4,0,0.7,0.1,0.8,0.4
				C339.5,762.5,339.6,762.9,339.6,763.4z M333.4,766.2c0,0.9,0.2,1.5,0.6,2c0.4,0.4,0.9,0.7,1.5,0.7c0.4,0,0.7-0.1,1-0.3
				c0.3-0.2,0.6-0.5,0.8-0.9c0.2-0.4,0.3-0.9,0.3-1.4c0-0.9-0.2-1.6-0.6-2c-0.4-0.5-0.9-0.7-1.5-0.7c-0.6,0-1.1,0.2-1.5,0.7
				C333.6,764.6,333.4,765.3,333.4,766.2z"/>
			<path class="st3" d="M343,763v0.3c0.4-0.5,0.8-0.9,1.2-1.1c0.4-0.2,1-0.3,1.5-0.3c0.6,0,1.1,0.1,1.5,0.4c0.4,0.2,0.8,0.6,1,1
				c0.1,0.3,0.2,0.5,0.3,0.8c0,0.3,0.1,0.7,0.1,1.2v4c0,0.4-0.1,0.8-0.3,1c-0.2,0.2-0.5,0.3-0.8,0.3c-0.3,0-0.6-0.1-0.8-0.3
				c-0.2-0.2-0.3-0.5-0.3-1v-3.6c0-0.7-0.1-1.2-0.3-1.6c-0.2-0.4-0.6-0.6-1.2-0.6c-0.4,0-0.7,0.1-1,0.3c-0.3,0.2-0.5,0.5-0.7,0.9
				c-0.1,0.3-0.2,0.9-0.2,1.8v2.7c0,0.4-0.1,0.8-0.3,1c-0.2,0.2-0.5,0.3-0.8,0.3c-0.3,0-0.6-0.1-0.8-0.3c-0.2-0.2-0.3-0.5-0.3-1
				v-6.2c0-0.4,0.1-0.7,0.3-0.9c0.2-0.2,0.4-0.3,0.7-0.3c0.2,0,0.4,0,0.5,0.1c0.2,0.1,0.3,0.2,0.4,0.4
				C342.9,762.6,343,762.8,343,763z"/>
			<path class="st3" d="M356,766.7h-4.2c0,0.5,0.1,0.9,0.3,1.3c0.2,0.4,0.4,0.7,0.8,0.8c0.3,0.2,0.7,0.3,1,0.3c0.3,0,0.5,0,0.7-0.1
				c0.2-0.1,0.4-0.2,0.6-0.3c0.2-0.1,0.4-0.3,0.5-0.4c0.2-0.1,0.4-0.3,0.7-0.6c0.1-0.1,0.3-0.1,0.5-0.1c0.2,0,0.4,0.1,0.5,0.2
				c0.1,0.1,0.2,0.3,0.2,0.5c0,0.2-0.1,0.4-0.2,0.7c-0.2,0.3-0.4,0.5-0.7,0.7c-0.3,0.2-0.7,0.4-1.2,0.6c-0.5,0.2-1,0.2-1.6,0.2
				c-1.4,0-2.4-0.4-3.2-1.2c-0.8-0.8-1.1-1.9-1.1-3.2c0-0.6,0.1-1.2,0.3-1.8c0.2-0.5,0.5-1,0.8-1.4c0.4-0.4,0.8-0.7,1.3-0.9
				c0.5-0.2,1.1-0.3,1.8-0.3c0.8,0,1.6,0.2,2.2,0.5c0.6,0.4,1,0.8,1.3,1.4c0.3,0.6,0.4,1.1,0.4,1.7c0,0.5-0.2,0.9-0.5,1
				C357,766.7,356.6,766.7,356,766.7z M351.8,765.5h3.9c-0.1-0.7-0.2-1.3-0.6-1.6c-0.3-0.4-0.8-0.5-1.4-0.5c-0.5,0-1,0.2-1.3,0.6
				C352.1,764.3,351.9,764.8,351.8,765.5z"/>
			<path class="st3" d="M364.8,769.4v-0.2c-0.3,0.3-0.6,0.6-0.9,0.8c-0.3,0.2-0.6,0.4-0.9,0.5c-0.3,0.1-0.7,0.2-1.1,0.2
				c-0.5,0-1-0.1-1.4-0.3c-0.4-0.2-0.8-0.5-1.1-0.9c-0.3-0.4-0.6-0.9-0.7-1.4c-0.2-0.5-0.2-1.1-0.2-1.8c0-1.3,0.3-2.4,1-3.1
				c0.7-0.7,1.5-1.1,2.6-1.1c0.6,0,1.1,0.1,1.6,0.3c0.4,0.2,0.8,0.5,1.2,1V760c0-0.4,0.1-0.8,0.3-1c0.2-0.2,0.4-0.3,0.7-0.3
				c0.3,0,0.6,0.1,0.7,0.3c0.2,0.2,0.3,0.5,0.3,0.9v9.5c0,0.4-0.1,0.7-0.3,0.9c-0.2,0.2-0.4,0.3-0.7,0.3c-0.3,0-0.5-0.1-0.7-0.3
				C364.9,770,364.8,769.7,364.8,769.4z M360.6,766.2c0,0.6,0.1,1.1,0.3,1.5c0.2,0.4,0.4,0.7,0.7,0.9c0.3,0.2,0.7,0.3,1,0.3
				c0.4,0,0.7-0.1,1-0.3c0.3-0.2,0.6-0.5,0.7-0.9c0.2-0.4,0.3-0.9,0.3-1.5c0-0.6-0.1-1.1-0.3-1.5c-0.2-0.4-0.4-0.7-0.8-0.9
				c-0.3-0.2-0.7-0.3-1-0.3c-0.4,0-0.7,0.1-1.1,0.3c-0.3,0.2-0.5,0.5-0.7,1C360.6,765.2,360.6,765.7,360.6,766.2z"/>
			<path class="st3" d="M373.5,759.9v3.3c0.4-0.4,0.8-0.7,1.2-1c0.4-0.2,0.9-0.3,1.6-0.3c0.7,0,1.3,0.2,1.9,0.5
				c0.5,0.3,1,0.8,1.2,1.5c0.3,0.6,0.4,1.4,0.4,2.3c0,0.6-0.1,1.2-0.2,1.8c-0.2,0.5-0.4,1-0.7,1.4c-0.3,0.4-0.7,0.7-1.1,0.9
				c-0.4,0.2-0.9,0.3-1.5,0.3c-0.3,0-0.6,0-0.9-0.1c-0.3-0.1-0.5-0.2-0.7-0.3c-0.2-0.1-0.4-0.3-0.5-0.4c-0.1-0.1-0.3-0.3-0.6-0.6
				v0.2c0,0.4-0.1,0.7-0.3,0.9c-0.2,0.2-0.4,0.3-0.7,0.3c-0.3,0-0.5-0.1-0.7-0.3c-0.2-0.2-0.3-0.5-0.3-0.9V760c0-0.4,0.1-0.8,0.3-1
				c0.2-0.2,0.4-0.3,0.7-0.3c0.3,0,0.6,0.1,0.8,0.3C373.4,759.2,373.5,759.5,373.5,759.9z M373.6,766.3c0,0.9,0.2,1.5,0.6,2
				c0.4,0.5,0.9,0.7,1.5,0.7c0.5,0,1-0.2,1.4-0.7c0.4-0.5,0.6-1.1,0.6-2c0-0.6-0.1-1.1-0.2-1.5c-0.2-0.4-0.4-0.7-0.7-0.9
				c-0.3-0.2-0.6-0.3-1-0.3c-0.4,0-0.8,0.1-1.1,0.3c-0.3,0.2-0.6,0.5-0.8,1C373.7,765.2,373.6,765.7,373.6,766.3z"/>
			<path class="st3" d="M382.7,770.8l0.2-0.5l-2.6-6.6c-0.2-0.4-0.2-0.7-0.2-0.8c0-0.2,0-0.4,0.1-0.5c0.1-0.2,0.2-0.3,0.4-0.4
				c0.2-0.1,0.3-0.1,0.5-0.1c0.3,0,0.5,0.1,0.7,0.3c0.2,0.2,0.3,0.5,0.4,0.8l1.8,5.3l1.7-4.9c0.1-0.4,0.3-0.7,0.4-0.9
				c0.1-0.2,0.2-0.4,0.3-0.5c0.1-0.1,0.3-0.1,0.5-0.1c0.2,0,0.3,0,0.5,0.1c0.1,0.1,0.3,0.2,0.3,0.3c0.1,0.1,0.1,0.3,0.1,0.5
				c0,0.1-0.1,0.2-0.1,0.4c0,0.2-0.1,0.4-0.2,0.6l-2.8,7.3c-0.2,0.6-0.5,1.1-0.7,1.5c-0.2,0.4-0.5,0.6-0.9,0.8
				c-0.4,0.2-0.9,0.3-1.5,0.3c-0.6,0-1.1-0.1-1.4-0.2c-0.3-0.1-0.5-0.4-0.5-0.7c0-0.2,0.1-0.4,0.2-0.6c0.1-0.1,0.4-0.2,0.7-0.2
				c0.1,0,0.2,0,0.3,0c0.1,0,0.3,0,0.4,0c0.2,0,0.4,0,0.6-0.1c0.1-0.1,0.3-0.2,0.4-0.4C382.4,771.5,382.5,771.2,382.7,770.8z"/>
		</g>
		<g>
			<path class="st3" d="M413.7,762h0.5v-0.6c0-0.7,0.1-1.2,0.3-1.6c0.2-0.4,0.5-0.7,0.9-0.9c0.4-0.2,1-0.3,1.7-0.3
				c1.3,0,1.9,0.3,1.9,0.9c0,0.2-0.1,0.4-0.2,0.5c-0.1,0.1-0.3,0.2-0.5,0.2c-0.1,0-0.2,0-0.4,0c-0.2,0-0.4,0-0.5,0
				c-0.4,0-0.6,0.1-0.7,0.3c-0.1,0.2-0.2,0.6-0.2,1v0.5h0.5c0.8,0,1.2,0.2,1.2,0.7c0,0.3-0.1,0.6-0.3,0.7c-0.2,0.1-0.5,0.1-0.9,0.1
				h-0.5v5.7c0,0.4-0.1,0.7-0.3,1c-0.2,0.2-0.5,0.3-0.8,0.3c-0.3,0-0.6-0.1-0.8-0.3c-0.2-0.2-0.3-0.5-0.3-1v-5.7h-0.6
				c-0.3,0-0.6-0.1-0.7-0.2c-0.2-0.1-0.3-0.3-0.3-0.6C412.6,762.3,413,762,413.7,762"/>
			<path class="st3" d="M420.7,767.5v1.8c0,0.4-0.1,0.8-0.3,1c-0.2,0.2-0.5,0.3-0.8,0.3c-0.3,0-0.6-0.1-0.8-0.3
				c-0.2-0.2-0.3-0.5-0.3-1v-6c0-1,0.3-1.4,1-1.4c0.4,0,0.6,0.1,0.8,0.3c0.2,0.2,0.2,0.6,0.3,1c0.3-0.4,0.5-0.8,0.8-1
				c0.3-0.2,0.6-0.3,1.1-0.3c0.5,0,0.9,0.1,1.3,0.3c0.4,0.2,0.6,0.5,0.6,0.9c0,0.3-0.1,0.5-0.3,0.6c-0.2,0.2-0.4,0.3-0.6,0.3
				c-0.1,0-0.3-0.1-0.6-0.1c-0.3-0.1-0.6-0.1-0.8-0.1c-0.3,0-0.6,0.1-0.8,0.2c-0.2,0.2-0.4,0.4-0.5,0.7c-0.1,0.3-0.2,0.7-0.2,1.2
				C420.7,766.3,420.7,766.8,420.7,767.5"/>
			<path class="st3" d="M430.6,766.7h-4.2c0,0.5,0.1,0.9,0.3,1.3c0.2,0.4,0.4,0.6,0.8,0.8c0.3,0.2,0.7,0.3,1,0.3
				c0.3,0,0.5,0,0.7-0.1c0.2-0.1,0.4-0.2,0.6-0.3c0.2-0.1,0.4-0.3,0.5-0.4c0.2-0.1,0.4-0.3,0.7-0.6c0.1-0.1,0.3-0.1,0.5-0.1
				c0.2,0,0.4,0.1,0.5,0.2c0.1,0.1,0.2,0.3,0.2,0.5c0,0.2-0.1,0.4-0.2,0.7c-0.2,0.3-0.4,0.5-0.7,0.7c-0.3,0.2-0.7,0.4-1.2,0.6
				c-0.5,0.2-1,0.2-1.6,0.2c-1.4,0-2.4-0.4-3.2-1.2c-0.8-0.8-1.2-1.9-1.2-3.2c0-0.6,0.1-1.2,0.3-1.8c0.2-0.5,0.5-1,0.8-1.4
				c0.4-0.4,0.8-0.7,1.3-0.9c0.5-0.2,1.1-0.3,1.8-0.3c0.8,0,1.6,0.2,2.2,0.5c0.6,0.3,1.1,0.8,1.3,1.4c0.3,0.6,0.4,1.1,0.4,1.7
				c0,0.5-0.2,0.9-0.5,1C431.6,766.7,431.1,766.7,430.6,766.7 M426.4,765.5h3.9c-0.1-0.7-0.2-1.3-0.6-1.6c-0.3-0.4-0.8-0.5-1.4-0.5
				c-0.5,0-1,0.2-1.3,0.6C426.7,764.3,426.5,764.8,426.4,765.5"/>
			<path class="st3" d="M439.5,766.7h-4.2c0,0.5,0.1,0.9,0.3,1.3c0.2,0.4,0.4,0.6,0.8,0.8c0.3,0.2,0.7,0.3,1.1,0.3
				c0.3,0,0.5,0,0.7-0.1c0.2-0.1,0.4-0.2,0.6-0.3c0.2-0.1,0.4-0.3,0.5-0.4c0.2-0.1,0.4-0.3,0.7-0.6c0.1-0.1,0.3-0.1,0.5-0.1
				c0.2,0,0.4,0.1,0.5,0.2c0.1,0.1,0.2,0.3,0.2,0.5c0,0.2-0.1,0.4-0.2,0.7c-0.1,0.3-0.4,0.5-0.7,0.7c-0.3,0.2-0.7,0.4-1.2,0.6
				c-0.5,0.2-1,0.2-1.6,0.2c-1.4,0-2.4-0.4-3.2-1.2c-0.8-0.8-1.1-1.9-1.1-3.2c0-0.6,0.1-1.2,0.3-1.8c0.2-0.5,0.5-1,0.8-1.4
				c0.4-0.4,0.8-0.7,1.3-0.9c0.5-0.2,1.1-0.3,1.8-0.3c0.8,0,1.6,0.2,2.2,0.5c0.6,0.3,1,0.8,1.3,1.4c0.3,0.6,0.5,1.1,0.5,1.7
				c0,0.5-0.2,0.9-0.5,1C440.5,766.7,440.1,766.7,439.5,766.7 M435.3,765.5h3.9c-0.1-0.7-0.3-1.3-0.6-1.6c-0.3-0.4-0.8-0.5-1.4-0.5
				c-0.5,0-1,0.2-1.3,0.6C435.6,764.3,435.4,764.8,435.3,765.5"/>
			<path class="st3" d="M444.2,763.1v0.3c0.4-0.5,0.8-0.9,1.3-1.1c0.4-0.2,0.9-0.4,1.5-0.4c0.7,0,1.3,0.2,1.8,0.5
				c0.6,0.3,1,0.8,1.3,1.5c0.3,0.7,0.5,1.4,0.5,2.3c0,0.7-0.1,1.3-0.3,1.8c-0.2,0.6-0.4,1-0.8,1.4c-0.3,0.4-0.7,0.7-1.1,0.9
				c-0.4,0.2-0.9,0.3-1.4,0.3c-0.6,0-1.1-0.1-1.5-0.4c-0.4-0.2-0.8-0.6-1.2-1.1v3.2c0,0.9-0.3,1.4-1,1.4c-0.4,0-0.7-0.1-0.8-0.4
				c-0.1-0.2-0.2-0.6-0.2-1.1v-9.3c0-0.4,0.1-0.7,0.3-0.9c0.2-0.2,0.4-0.3,0.7-0.3c0.3,0,0.6,0.1,0.7,0.3
				C444.1,762.4,444.2,762.7,444.2,763.1 M448.4,766.2c0-0.6-0.1-1.1-0.3-1.5c-0.2-0.4-0.4-0.7-0.7-0.9c-0.3-0.2-0.6-0.3-1-0.3
				c-0.6,0-1.1,0.2-1.5,0.7c-0.4,0.5-0.6,1.2-0.6,2.1c0,0.8,0.2,1.5,0.6,2c0.4,0.5,0.9,0.7,1.5,0.7c0.4,0,0.7-0.1,1-0.3
				c0.3-0.2,0.5-0.5,0.7-0.9C448.3,767.3,448.4,766.8,448.4,766.2"/>
			<path class="st3" d="M452.7,760.9c-0.3,0-0.6-0.1-0.8-0.3c-0.2-0.2-0.3-0.4-0.3-0.8c0-0.3,0.1-0.6,0.3-0.8
				c0.2-0.2,0.5-0.3,0.8-0.3c0.3,0,0.5,0.1,0.7,0.3c0.2,0.2,0.3,0.4,0.3,0.8c0,0.3-0.1,0.6-0.3,0.8
				C453.3,760.8,453,760.9,452.7,760.9 M453.8,763.1v6.2c0,0.4-0.1,0.8-0.3,1c-0.2,0.2-0.5,0.3-0.8,0.3c-0.3,0-0.6-0.1-0.8-0.3
				c-0.2-0.2-0.3-0.5-0.3-1v-6.1c0-0.4,0.1-0.7,0.3-1c0.2-0.2,0.5-0.3,0.8-0.3c0.3,0,0.6,0.1,0.8,0.3
				C453.7,762.4,453.8,762.7,453.8,763.1"/>
			<path class="st3" d="M460.7,769.6l-1.9-3.1l-1.2,1.1v1.7c0,0.4-0.1,0.7-0.3,1c-0.2,0.2-0.5,0.3-0.7,0.3c-0.3,0-0.6-0.1-0.8-0.3
				c-0.2-0.2-0.3-0.5-0.3-1v-9.1c0-0.5,0.1-0.8,0.3-1.1c0.2-0.3,0.5-0.4,0.8-0.4c0.3,0,0.6,0.1,0.8,0.3c0.2,0.2,0.3,0.6,0.3,1v5.2
				l2.4-2.5c0.3-0.3,0.5-0.5,0.7-0.6c0.2-0.1,0.3-0.2,0.6-0.2c0.3,0,0.5,0.1,0.7,0.3c0.2,0.2,0.3,0.4,0.3,0.6c0,0.3-0.3,0.7-0.9,1.3
				l-1.1,1l2.2,3.5c0.2,0.3,0.3,0.4,0.4,0.6c0.1,0.1,0.1,0.3,0.1,0.4c0,0.3-0.1,0.6-0.3,0.8c-0.2,0.2-0.4,0.3-0.7,0.3
				c-0.3,0-0.5-0.1-0.6-0.2C461.1,770.2,460.9,770,460.7,769.6"/>
			<path class="st3" d="M465.3,770.6c-0.3,0-0.6-0.1-0.8-0.3c-0.2-0.2-0.4-0.5-0.4-0.9c0-0.3,0.1-0.6,0.3-0.8
				c0.2-0.2,0.5-0.3,0.8-0.3c0.3,0,0.6,0.1,0.8,0.3c0.2,0.2,0.3,0.5,0.3,0.8c0,0.4-0.1,0.7-0.3,0.9
				C465.9,770.5,465.7,770.6,465.3,770.6"/>
			<path class="st3" d="M476,767.9c0,0.3-0.1,0.6-0.2,0.9c-0.2,0.3-0.4,0.6-0.7,0.9c-0.3,0.3-0.7,0.5-1.2,0.7
				c-0.5,0.2-1.1,0.3-1.7,0.3c-1.3,0-2.4-0.4-3.1-1.2c-0.7-0.8-1.1-1.8-1.1-3.1c0-0.9,0.2-1.7,0.5-2.3c0.3-0.7,0.8-1.2,1.5-1.6
				c0.6-0.4,1.4-0.6,2.3-0.6c0.6,0,1.1,0.1,1.5,0.2c0.5,0.2,0.9,0.4,1.2,0.6c0.3,0.3,0.6,0.5,0.7,0.8c0.2,0.3,0.3,0.6,0.3,0.8
				c0,0.3-0.1,0.5-0.3,0.7c-0.2,0.2-0.4,0.3-0.7,0.3c-0.2,0-0.3,0-0.4-0.1c-0.1-0.1-0.3-0.2-0.4-0.4c-0.3-0.4-0.5-0.7-0.8-0.9
				c-0.3-0.2-0.6-0.3-1.1-0.3c-0.6,0-1.1,0.2-1.5,0.7c-0.4,0.5-0.6,1.2-0.6,2c0,0.4,0.1,0.8,0.2,1.1c0.1,0.3,0.2,0.6,0.4,0.9
				c0.2,0.2,0.4,0.4,0.7,0.5c0.3,0.1,0.6,0.2,0.9,0.2c0.4,0,0.8-0.1,1.1-0.3c0.3-0.2,0.6-0.5,0.8-0.9c0.1-0.2,0.3-0.4,0.4-0.6
				c0.2-0.1,0.3-0.2,0.6-0.2c0.3,0,0.5,0.1,0.6,0.3C475.9,767.5,476,767.7,476,767.9"/>
			<path class="st3" d="M485.3,766.2c0,0.6-0.1,1.2-0.3,1.8c-0.2,0.5-0.5,1-0.9,1.4c-0.4,0.4-0.8,0.7-1.3,0.9
				c-0.5,0.2-1.1,0.3-1.8,0.3c-0.6,0-1.2-0.1-1.8-0.3c-0.5-0.2-1-0.5-1.3-0.9c-0.4-0.4-0.7-0.9-0.9-1.4c-0.2-0.5-0.3-1.1-0.3-1.8
				c0-0.6,0.1-1.2,0.3-1.8c0.2-0.5,0.5-1,0.9-1.4c0.4-0.4,0.8-0.7,1.3-0.9c0.5-0.2,1.1-0.3,1.8-0.3c0.6,0,1.2,0.1,1.8,0.3
				c0.5,0.2,1,0.5,1.4,0.9c0.4,0.4,0.7,0.9,0.9,1.4C485.2,765,485.3,765.6,485.3,766.2 M483.1,766.2c0-0.9-0.2-1.6-0.6-2
				c-0.4-0.5-0.9-0.7-1.5-0.7c-0.4,0-0.8,0.1-1.1,0.3c-0.3,0.2-0.6,0.5-0.7,1c-0.2,0.4-0.3,0.9-0.3,1.5c0,0.6,0.1,1,0.3,1.5
				c0.2,0.4,0.4,0.7,0.7,1c0.3,0.2,0.7,0.3,1.1,0.3c0.6,0,1.2-0.2,1.5-0.7C482.9,767.8,483.1,767.1,483.1,766.2"/>
			<path class="st3" d="M493.4,766.4v2.8c0,0.5-0.1,0.8-0.3,1c-0.2,0.2-0.5,0.3-0.8,0.3c-0.3,0-0.6-0.1-0.8-0.3
				c-0.2-0.2-0.3-0.6-0.3-1v-3.4c0-0.5,0-1-0.1-1.3c0-0.3-0.1-0.5-0.3-0.7c-0.2-0.2-0.4-0.3-0.8-0.3c-0.7,0-1.2,0.2-1.4,0.7
				c-0.2,0.5-0.3,1.2-0.3,2.1v2.9c0,0.4-0.1,0.8-0.3,1c-0.2,0.2-0.5,0.3-0.8,0.3c-0.3,0-0.6-0.1-0.8-0.3c-0.2-0.2-0.3-0.6-0.3-1
				v-6.1c0-0.4,0.1-0.7,0.3-0.9c0.2-0.2,0.4-0.3,0.7-0.3c0.3,0,0.5,0.1,0.7,0.3c0.2,0.2,0.3,0.5,0.3,0.8v0.2c0.4-0.4,0.8-0.8,1.2-1
				c0.4-0.2,0.9-0.3,1.4-0.3c0.5,0,1,0.1,1.4,0.3c0.4,0.2,0.7,0.5,1,1c0.4-0.4,0.8-0.8,1.2-1c0.4-0.2,0.9-0.3,1.4-0.3
				c0.6,0,1.1,0.1,1.5,0.3c0.4,0.2,0.7,0.6,0.9,1c0.2,0.4,0.3,1,0.3,1.8v4.2c0,0.5-0.1,0.8-0.3,1c-0.2,0.2-0.5,0.3-0.8,0.3
				c-0.3,0-0.6-0.1-0.8-0.3c-0.2-0.2-0.3-0.6-0.3-1v-3.6c0-0.5,0-0.8-0.1-1.1c0-0.3-0.1-0.5-0.3-0.7c-0.2-0.2-0.4-0.3-0.8-0.3
				c-0.3,0-0.6,0.1-0.8,0.3c-0.3,0.2-0.5,0.4-0.6,0.7C493.5,764.8,493.4,765.5,493.4,766.4"/>
		</g>
		<g>
			<path class="st3" d="M393.7,765.7C393.7,765.7,393.7,765.7,393.7,765.7C393.7,765.7,393.7,765.7,393.7,765.7z"/>
			<path class="st3" d="M393.8,766.4C393.8,766.4,393.8,766.4,393.8,766.4c0-0.2-0.1-0.4-0.1-0.6C393.7,766,393.7,766.2,393.8,766.4
				z"/>
			<path class="st3" d="M394.5,768.4C394.5,768.4,394.5,768.4,394.5,768.4C394.5,768.4,394.5,768.4,394.5,768.4z"/>
			<path class="st3" d="M394.4,768.2c0,0,0-0.1-0.1-0.1C394.4,768.2,394.4,768.2,394.4,768.2z"/>
			<path class="st3" d="M394,767.2c0.1,0.3,0.2,0.7,0.4,1C394.2,767.8,394.1,767.5,394,767.2C394,767.2,394,767.2,394,767.2z"/>
			<path class="st3" d="M402,757.5c0.4,0,0.7,0,1.1,0.1l0.1-0.6c0,0-1-0.3-2.2-0.2l-0.1-0.3c0.4-0.1,0.7-0.4,0.7-0.9
				c0-0.5-0.4-0.9-0.9-0.9c-0.5,0-0.9,0.4-0.9,0.9c0,0.4,0.3,0.8,0.7,0.9l0.1,0.4c-1.4,0.2-2.4,0.7-2.4,0.7l0.2,0.6
				c0.8-0.3,1.5-0.4,2.2-0.5C401.1,757.5,401.6,757.5,402,757.5z"/>
			<path class="st3" d="M394.5,760.7L394.5,760.7c0,0,0.1-0.1,0.1-0.1l-0.3-0.2l-0.4-0.3c0,0-0.7,0.6-1.2,1.7c0,0,0-0.1-0.1-0.1
				c-0.2-0.2-0.4-0.2-0.6-0.2c0,0,0,0,0,0c-0.2,0-0.3-0.1-0.4-0.1c0.1-0.1,0.1-0.2,0.1-0.3c0-0.3-0.2-0.6-0.6-0.6
				c-0.3,0-0.6,0.2-0.6,0.6c0,0.3,0.2,0.6,0.6,0.6c0,0,0.1,0,0.1,0c0.1,0.2,0.4,0.3,0.7,0.3c0.2,0,0.3,0,0.4,0.1
				c0.1,0.1,0.1,0.2,0.1,0.4c0,0,0,0,0,0c-0.4,1-0.3,2.2-0.3,2.2l0.9,0c0-0.4,0.1-1.2,0.3-1.8C393.9,761.5,394.4,760.7,394.5,760.7z
				"/>
			<path class="st3" d="M409.6,758.2c-0.3,0-0.6,0.2-0.6,0.6c0,0,0,0.1,0,0.1c-0.2,0.1-0.3,0.4-0.3,0.7c0,0.2,0,0.3-0.1,0.4
				c-0.1,0.1-0.2,0.1-0.2,0.1c-0.7-0.9-1.5-1.5-1.5-1.5l-0.6,0.7c0.5,0.4,1,1,1.4,1.6c0.3,0.5,0.7,1.1,0.9,1.7l0.8-0.4
				c0,0-0.4-1-0.9-1.8c0.1,0,0.2-0.1,0.3-0.2c0.2-0.1,0.2-0.4,0.2-0.6c0-0.2,0.1-0.3,0.1-0.4c0.1,0.1,0.2,0.1,0.3,0.1
				c0.3,0,0.6-0.2,0.6-0.6C410.1,758.5,409.9,758.2,409.6,758.2z"/>
			<path class="st3" d="M407.4,765.8c-1.2,0.6-3.1,1.3-5.6,1.7c-1,0.1-2,0.2-2.8,0.2c-1.1,0-2.2-0.1-2.9-0.2c-0.9-0.1-1.6-0.2-2-0.3
				c0.1,0.3,0.2,0.6,0.4,1c0,0,0,0,0,0c0,0,0,0.1,0.1,0.1c0,0,0,0.1,0.1,0.1c0,0,0,0,0,0c0.3,0.5,0.6,0.9,0.9,1.3
				c1.2,1.3,2.4,1.5,2.4,1.5l0,0l0,0c0,0,1.1,0.4,2.7,0.4c1.6,0,3.2-0.3,4.7-1c1.1-0.6,2.2-1.4,2.7-2.2c0.4-0.6,0.7-1.2,0.9-1.9
				c0.1-0.4,0.2-0.9,0.1-1.5C408.6,765.2,408.1,765.5,407.4,765.8z"/>
			<path class="st3" d="M394.8,761c0,0-0.5,0.8-0.9,1.9c-0.3,0.8-0.3,2-0.3,2v0c0,0.3,0,0.6,0,0.8c0,0,0,0,0,0c0,0,0,0.1,0,0.1
				c0,0.2,0.1,0.4,0.1,0.6c0.6,0.1,4,1,7.9,0.4c2.4-0.3,4.3-1.1,5.4-1.6c0.9-0.4,1.5-0.9,1.8-1c-0.2-0.9-0.9-2.2-1.4-3
				c-1.7-2.4-3.4-3-4.4-3.1c-0.4-0.1-0.6-0.1-1-0.1c-0.4,0-0.8,0-1.4,0.1c-0.6,0.1-1.3,0.2-2.1,0.5c-1.1,0.4-2.1,1-2.9,1.7l0,0
				C395.4,760.4,395.1,760.6,394.8,761z M405,760.4c0.8,0,1.4,0.6,1.4,1.4c0,0.8-0.6,1.4-1.4,1.4c-0.8,0-1.4-0.6-1.4-1.4
				C403.5,761,404.2,760.4,405,760.4z M398.2,760.3c1.3,0,2.3,1,2.3,2.3c0,1.3-1,2.3-2.3,2.3c-1.3,0-2.3-1-2.3-2.3
				C395.8,761.4,396.9,760.3,398.2,760.3z"/>
		</g>
	</g>
</g>
<g id="Objects">
	<g>
		<path class="st4" d="M160.2,142.2c-1.2-2.1-3.1-3.8-5.3-4.8l2.6-13.8l7.8-6.7c2.6-2.2,2.9-6.2,0.7-8.8c-2.2-2.6-6.2-2.9-8.8-0.7
			l-7.8,6.7c-2,1.7-3.4,4.1-3.9,6.6l-2.8,13.9l-32.5-6.5l2.8-13.9c0.5-2.6,0.1-5.3-1-7.6l-0.8-1.5l54-8.2c3.4-0.5,5.7-3.7,5.2-7.1
			c-0.5-3.4-3.7-5.7-7.1-5.2c0,0-48,7.2-63.6,9.6c-4.6,0.7-6,3.6-4.3,7.1c1.3,2.8,5.4,10.4,5.4,10.4L98,126.1
			c-2.4,0.1-4.7,0.9-6.7,2.4c-2.6,2-4.2,5.1-4.4,8.4l-1.4,24.8c-0.2,4.4,2.8,8.3,7.1,9.2l50.1,10c4.3,0.9,8.6-1.6,10.1-5.8l8.2-23.5
			C162.1,148.5,161.8,145.1,160.2,142.2z"/>
		<path class="st4" d="M121.2,201.6l-16.6-3.3c-1-0.2-2,0.4-2.2,1.4l-0.4,2.1c-0.5,2.7,0,5.5,1.5,7.7c1.5,2.3,3.9,3.9,6.6,4.4
			c5.6,1.1,11-2.5,12.1-8.1l0.4-2.1C122.8,202.7,122.2,201.8,121.2,201.6z"/>
		<path class="st4" d="M137.7,186.1l-42.5-8.5c-3.4-0.7-6.7,1.5-7.3,4.9c-0.7,3.4,1.5,6.7,4.9,7.3l42.5,8.5c3.4,0.7,6.7-1.5,7.3-4.9
			C143.2,190,141.1,186.8,137.7,186.1z"/>
		<path class="st4" d="M105.5,82c0.7,0.1,1.4,0.2,2.1,0l62.5-9.5c3.4-0.5,5.7-3.7,5.2-7.1c-0.5-3.4-3.7-5.7-7.1-5.2l-62.5,9.5
			c-3.4,0.5-5.7,3.7-5.2,7.1C100.9,79.5,103,81.5,105.5,82z"/>
		<path class="st4" d="M117,56.6c0.7,0.1,1.4,0.2,2.2,0l44.5-6.7c3.4-0.5,5.7-3.7,5.2-7.1c-0.5-3.4-3.7-5.7-7.1-5.2l-44.5,6.7
			c-3.4,0.5-5.7,3.7-5.2,7.1C112.5,54.1,114.5,56.1,117,56.6z"/>
	</g>
	<g>
		<path class="st4" d="M69,774.1l8,4.4c5,2.8,11.2,1.2,14.3-3.4l-27-14.9C62,765.3,64,771.4,69,774.1z"/>
		<polygon class="st4" points="70.9,748 67.5,754.1 94.7,769.1 98.1,763 		"/>
		<g>
			<path class="st4" d="M136.9,729.9c8.7-15.9,2.7-36-13.6-45c-16.3-9-36.5-3.3-45.3,12.5c-3.7,6.7-4.7,14.2-3.5,21.2
				c1.1,6.2,1.8,12.7,2,18.9l-2.3,4.2l27.2,15l2.3-4.2c5.5-3.2,11.2-6,17.1-8.4C127.5,741.5,133.2,736.6,136.9,729.9z M116.2,715.2
				l-12.7,10.5l1.8,2.1c0.4,0.5,0.6,1.1,0.4,1.8c-0.2,0.6-0.7,1.1-1.3,1.2l-12.6,3c-0.9,0.2-2-0.1-2.6-0.9c-0.6-0.7-0.8-1.8-0.4-2.7
				l5.2-11.7c0.3-0.6,0.8-1,1.4-1.1c0.6-0.1,1.3,0.2,1.7,0.7l1.8,2.1l8-6.6l-4.1-1.5c-1.2-0.4-2.1-1.4-2.3-2.6
				c-0.3-1.2,0.1-2.5,1.1-3.3l12.8-11.4c1.4-1.3,3.7-1.2,5,0.3c1.3,1.5,1.2,3.7-0.2,5l-8.4,7.6l4.4,1.6c1.2,0.4,2.1,1.5,2.3,2.7
				C117.6,713.1,117.2,714.4,116.2,715.2z"/>
		</g>
	</g>
	<path class="st4" d="M309.8,479.7c-19.5,0-35.3,15.9-35.3,35.3c0,8,2.6,15.5,7.6,21.8c3.7,4.7,7.2,9.8,10.2,14.9l0,0.1v20.7
		c0,1.9,1.6,3.5,3.5,3.5h3.9c0.2,4.9,4.2,8.8,9.1,8.8h2c4.9,0,8.9-3.9,9.1-8.8h3.9c1.9,0,3.5-1.6,3.5-3.5v-20.7l0-0.1
		c3-5.1,6.4-10.1,10.2-14.9c5-6.3,7.6-13.8,7.6-21.8C345.2,495.5,329.3,479.7,309.8,479.7z M320.4,553.4v5.2h-21.1v-5.2H320.4z
		 M299.3,569v-5.1h21.1v5.1H299.3z M332.1,532.5c-3.5,4.4-6.8,9.1-9.7,13.9h-10v-20.6l15.5-15.5c1-1,1-2.7,0-3.7c-1-1-2.7-1-3.7,0
		L309.8,521l-14.4-14.4c-1-1-2.7-1-3.7,0c-1,1-1,2.7,0,3.7l15.5,15.5v20.6h-10c-2.9-4.8-6.2-9.6-9.7-13.9c-4-5-6.1-11.1-6.1-17.5
		c0-15.6,12.7-28.3,28.3-28.3c15.6,0,28.3,12.7,28.3,28.3C338.2,521.4,336.1,527.5,332.1,532.5z"/>
	<g>
		<path class="st4" d="M180.7,417.6c3.6,15.6,7.3,31.2,10.7,46.8c2.1,9.6,0.1,13-9.1,15.2c-30.9,7.3-61.9,14.5-92.9,21.5
			c-8.5,1.9-11.5,0.1-13.6-8.3c-8.2-31.7-15.1-63.7-22-95.7c-1.7-8.1,0.4-11.5,8.3-13.9c30.3-8.9,61.3-15,92.1-21.8
			c10.8-2.4,13.4-0.2,16,10.7c3.6,15.1,7,30.3,10.4,45.4C180.6,417.6,180.6,417.6,180.7,417.6z"/>
		<path class="st5" d="M173.7,419.5c3.4,14.7,6.6,29.4,10.1,44c1.4,5.9-0.2,8.8-6.3,10.1c-28.2,6.4-56.3,13.1-84.4,19.6
			c-9.5,2.2-9.7,1.9-12.1-7.6c-7-28.3-13.5-56.7-19.5-85.2c-1.3-6.3-0.2-9.7,6.4-11.5c28.6-7.5,57.6-13.8,86.5-20.1
			c5.3-1.1,7.9,0.6,9,6C166.7,389.8,170.2,404.7,173.7,419.5C173.7,419.6,173.7,419.6,173.7,419.5z"/>
		<path class="st4" d="M131.9,472.2c-22.4,5.3-46-9-51.4-31.1c-5.8-23.6,8.5-47.3,31.9-52.9c22.5-5.4,44.6,9.1,50.6,33
			C168.2,442.4,153.2,467.1,131.9,472.2z"/>
		<path class="st5" d="M129.3,465.4c-18.2,4.2-37.8-7.6-42.1-25.4c-5.1-20.9,6.9-40.7,27.5-45.5c17.2-4,37.1,9,41.3,27
			C160.6,441.1,148.5,461,129.3,465.4z"/>
		<path class="st4" d="M119.3,420.8c-4.6,0.8-7.5-1.3-8.6-5.5c-1.3-5,1-8.6,5.9-9.8c4.3-1,7.7,1.2,8.7,5.5
			C126.5,415.9,124,419.1,119.3,420.8z"/>
		<path class="st4" d="M148.7,432.3c0.3,4.6-1.2,8.3-5.9,9.1c-4.5,0.8-8.1-1.6-9-6.1c-0.9-4.5,1.2-8,5.9-9
			C144.4,425.3,147.2,428,148.7,432.3z"/>
		<path class="st4" d="M108.9,449.4c-4.5,0.4-8.1-1.2-9.1-5.8c-1.1-4.9,1.5-8.3,6.2-9.4c4.8-1.2,7.8,1.6,8.8,6
			C115.7,444.7,113,447.6,108.9,449.4z"/>
	</g>
	<g>
		<path class="st4" d="M302.7,206.4c7.8,4.2,7.9,4.2,6.2,13.3c-1.9,9.8-5.9,18.6-12.2,27.1c-5-9.3-10.5-17.8-11.2-28.3
			c-0.4-5.4,0.3-10.4,6.7-12.1C295.7,206.4,299.2,206.4,302.7,206.4z"/>
		<path class="st4" d="M316.7,258.9c6.4,0.4,13.3,0.4,20,3.1c6.6,2.8,8,5.4,5.9,12.2c-0.3,0.8-0.6,1.6-1,2.4
			c-4.8,10.7-9.2,11.9-18.3,4.8c-6.1-4.8-11-10.7-15.4-17.1c-0.9-1.4-2.7-2.9-1.5-4.6c0.9-1.3,2.9-0.6,4.4-0.7
			C312.6,258.9,314.3,258.9,316.7,258.9z"/>
		<path class="st4" d="M250.3,267.3c-0.7-2.8,0.6-4.3,3.2-5.5c8-3.7,16.4-3.1,24.8-3.1c3.5,0,9-1.6,10.2,1.4c1.5,3.5-3.4,6.4-5.9,9
			c-5.5,5.8-11,11.7-19.1,14.3c-3.6,1.1-5.9,0.4-8.1-2.6C252.5,276.8,250.2,272.6,250.3,267.3z"/>
		<path class="st4" d="M339.6,248.4c0,1.4,0.1,2.1,0,2.8c-0.2,1.8,0.5,4.3-2.4,4.4c-2.6,0-2.1-2.4-2.2-4c-0.4-5.7-0.8-11.5-2.8-16.9
			c-0.6-1.5-0.9-3.2,1.1-3.9c2.2-0.7,2.5,1.2,3.2,2.6C338.8,238.4,339.2,243.8,339.6,248.4z"/>
		<path class="st4" d="M290.6,256.1c-0.1-3.9,3.2-7.7,6.7-7.4c3.8,0.3,6.3,2.6,6.2,6.4c-0.1,3.9-2.6,6.5-6.5,6.8
			C293,262.3,291.1,259.7,290.6,256.1z"/>
		<path class="st4" d="M274.5,286.2c0.8,0.4,1.5,0.7,2,1.1c4.9,3.8,10.3,6.5,16.3,8.1c1.7,0.4,3,1.2,2.4,3.3
			c-0.6,2.1-2.2,1.9-3.8,1.4c-6.3-2.2-12.3-5.1-17.3-9.6c-0.8-0.7-2-1.7-1.2-3.1C273.2,286.9,273.9,286.6,274.5,286.2z"/>
		<path class="st4" d="M261,234.6c-1.9-0.6-2.8-1.9-1.4-3.5c4.8-5.4,10.3-9.9,17.3-12.2c1-0.3,2.1-0.4,2.9,0.5
			c0.7,0.9,0.2,1.8-0.6,2.2c-6.3,3.2-11.8,7.4-16.8,12.4C262.1,234.3,261.5,234.4,261,234.6z"/>
		<path class="st4" d="M281.2,280c3,2,6.1,4,9.1,6.1c0.8,0.6,0.7,1.5,0.2,2.3c-0.7,1.1-1.7,1-2.7,0.5c-3.2-1.2-5.8-3.2-8.5-5.2
			c-0.7-0.5-1.3-1.2-0.6-2.2C279.2,280.8,279.9,280,281.2,280z"/>
		<path class="st4" d="M283,228.8c-0.6,0.7-0.9,1.3-1.5,1.6c-2.7,1.7-5.4,3.2-8.1,4.9c-1.1,0.7-2,0.5-2.7-0.4
			c-0.6-0.7-0.9-1.7-0.1-2.3c3-2.5,6.2-4.5,10-5.5C281.9,226.6,282.2,227.9,283,228.8z"/>
		<path class="st4" d="M330.5,247.1c-0.9,2.4,0.7,6-1.9,6.2c-3.1,0.2-1.9-3.5-2.1-5.4c-0.3-2.6-2.7-7.1,1.2-7.5
			C332.1,240,328.7,245.2,330.5,247.1z"/>
		<path class="st6" d="M297.3,236c-4.2-6.1-6-12.4-6.7-19.1c-0.3-2.8,0.7-4.4,3.7-4.3c2.3,0,4.5-0.1,6.8-0.1c1.6,0,2.8,0.5,2.6,2.4
			C303.1,222.2,301.4,229.2,297.3,236z"/>
		<path class="st6" d="M320.6,264.3c4.8,0.4,9.5,0.7,13.9,2.8c5.9,2.8,1.6,6.5,0.7,9.6c-1.1,3.5-3.8,3.8-6.6,1.5
			c-3.5-2.9-6.9-5.8-10.2-8.9c-1.2-1.1-3.3-2.4-2.4-4.2C316.8,263.5,319.1,264.6,320.6,264.3z"/>
		<path class="st7" d="M278.1,262.4c0.2,0.1,1.1,0.1,1.5,0.5c0.6,0.8,0,1.7-0.6,2.3c-4.4,4.7-8.9,9.6-14.8,12.4
			c-5.4,2.5-5.7-2.9-7.4-5.7c-1.6-2.6-1.2-4.8,2.3-5.9C265.2,264,271.5,263.3,278.1,262.4z"/>
		<path class="st8" d="M296.9,257.9c-1.4,0-2.4-0.4-2.6-1.9c-0.1-1.6,0.7-2.7,2.2-2.9c1.6-0.3,2.7,0.7,2.8,2.2
			C299.6,256.9,298.3,257.5,296.9,257.9z"/>
	</g>
	<g>
		<g>
			<g>
				<path class="st4" d="M362.3,365.3c0.8,2.7-0.7,5.5-3.3,6.3l0,0c-2.7,0.8-5.5-0.7-6.3-3.3l-7.8-25.5c-0.8-2.7,0.7-5.5,3.3-6.3
					l0,0c2.7-0.8,5.5,0.7,6.3,3.3L362.3,365.3z"/>
				<path class="st4" d="M386.7,357.8c0.8,2.7-0.7,5.5-3.3,6.3l0,0c-2.7,0.8-5.5-0.7-6.3-3.3l-7.8-25.5c-0.8-2.7,0.7-5.5,3.3-6.3
					l0,0c2.7-0.8,5.5,0.7,6.3,3.3L386.7,357.8z"/>
			</g>
			<g>
				<path class="st4" d="M391,397.3c1.2,3.8-2.9,6.1-8.3,7.8l0,0c-5.4,1.7-10.1,2-11.2-1.8l-2.8-9c-1.2-3.8,2.3-8.2,7.7-9.9l0,0
					c5.4-1.7,10.7,0.1,11.9,3.9L391,397.3z"/>
				<path class="st4" d="M401.3,381.4c0.6,1.9-0.6,4-2.6,4.6l-40,12.3c-2,0.6-4.2-0.4-4.8-2.4l-8.7-28.3c-0.6-1.9,0.6-4,2.6-4.6
					l40-12.3c2-0.6,4.2,0.4,4.8,2.3L401.3,381.4z"/>
				<path class="st4" d="M396.6,354c0.6,1.9-0.5,4-2.4,4.6L347,373.1c-1.9,0.6-4-0.5-4.6-2.4l-1.1-3.7c-0.6-1.9,0.5-4,2.4-4.6
					l47.3-14.5c1.9-0.6,4,0.5,4.6,2.4L396.6,354z"/>
			</g>
			<g>
				<path class="st4" d="M385.3,371.1c0.2,0.5-0.2,1.1-0.8,1.3l-21.8,6.7c-0.6,0.2-1.3-0.1-1.4-0.6l0-0.1c-0.2-0.5,0.2-1.1,0.8-1.3
					l21.8-6.7c0.6-0.2,1.3,0.1,1.4,0.6L385.3,371.1z"/>
				<path class="st4" d="M386.6,375.3c0.2,0.5-0.2,1.1-0.8,1.3l-21.8,6.7c-0.6,0.2-1.3-0.1-1.4-0.6l0-0.1c-0.2-0.5,0.2-1.1,0.8-1.3
					l21.8-6.7c0.6-0.2,1.3,0.1,1.4,0.6L386.6,375.3z"/>
				<path class="st4" d="M387.9,379.4c0.2,0.5-0.2,1.1-0.8,1.3l-21.8,6.7c-0.6,0.2-1.3-0.1-1.4-0.6l0-0.1c-0.2-0.5,0.2-1.1,0.8-1.3
					l21.8-6.7c0.6-0.2,1.3,0.1,1.4,0.6L387.9,379.4z"/>
			</g>
		</g>
		<g>
			<g>
				<path class="st4" d="M379.3,402.5c4.4,10,3.6,25.6,13.8,32.2c5.9,3.8,13.5,1.4,19.5-0.8c9.3-3.4,18.1-8.5,28.3-8.4
					c3.2,0,3.2-5,0-5c-8.2-0.1-15.6,2.8-23.1,5.9c-5.8,2.4-16.2,8.1-22.2,3.8c-4.5-3.2-6-10-7.4-14.9c-1.4-5.2-2.4-10.5-4.6-15.4
					C382.3,397.1,378,399.6,379.3,402.5L379.3,402.5z"/>
			</g>
		</g>
	</g>
	<g>
		
			<rect x="537.3" y="302" transform="matrix(0.9631 0.2691 -0.2691 0.9631 126.8207 -130.4661)" class="st9" width="4.2" height="190.8"/>
		
			<rect x="591.3" y="302" transform="matrix(-0.9631 0.269 -0.269 -0.9631 1271.7639 620.5765)" class="st9" width="4.2" height="190.8"/>
		<rect x="539.5" y="354.2" class="st9" width="53.7" height="3.6"/>
		<rect x="525.4" y="410.9" class="st9" width="81.9" height="3.6"/>
		<g>
			<line class="st10" x1="552" y1="357.8" x2="597.9" y2="412.7"/>
			<g>
				<path class="st4" d="M550.3,359.6c15.3,18.3,30.6,36.6,45.8,54.9c2.1,2.5,5.6-1.1,3.5-3.5c-15.3-18.3-30.6-36.6-45.8-54.9
					C551.7,353.6,548.2,357.1,550.3,359.6L550.3,359.6z"/>
			</g>
		</g>
		<g>
			<line class="st10" x1="580.3" y1="357.8" x2="534.2" y2="412.7"/>
			<g>
				<path class="st4" d="M578.5,356.1c-15.4,18.3-30.8,36.6-46.1,54.9c-2.1,2.4,1.5,6,3.5,3.5c15.4-18.3,30.8-36.6,46.1-54.9
					C584.1,357.1,580.6,353.6,578.5,356.1L578.5,356.1z"/>
			</g>
		</g>
		<g>
			<line class="st10" x1="559.1" y1="323.2" x2="580.3" y2="357.8"/>
			<g>
				<path class="st4" d="M556.9,324.5c7.1,11.5,14.2,23.1,21.3,34.6c1.7,2.7,6,0.2,4.3-2.5c-7.1-11.5-14.2-23.1-21.3-34.6
					C559.5,319.2,555.2,321.8,556.9,324.5L556.9,324.5z"/>
			</g>
		</g>
		<g>
			<line class="st10" x1="573.8" y1="323.2" x2="552" y2="357.8"/>
			<g>
				<path class="st4" d="M571.6,322c-7.3,11.5-14.5,23.1-21.8,34.6c-1.7,2.7,2.6,5.2,4.3,2.5c7.3-11.5,14.5-23.1,21.8-34.6
					C577.7,321.8,573.3,319.3,571.6,322L571.6,322z"/>
			</g>
		</g>
		<g>
			<line class="st10" x1="534.2" y1="412.7" x2="611.1" y2="462.1"/>
			<g>
				<path class="st4" d="M532.9,414.9c22.4,14.4,44.9,28.8,67.3,43.2c3.2,2.1,6.4,4.1,9.6,6.2c2.7,1.7,5.2-2.6,2.5-4.3
					c-22.4-14.4-44.9-28.8-67.3-43.2c-3.2-2.1-6.4-4.1-9.6-6.2C532.7,408.8,530.2,413.1,532.9,414.9L532.9,414.9z"/>
			</g>
		</g>
		<g>
			<line class="st10" x1="597.9" y1="412.7" x2="521.7" y2="462.1"/>
			<g>
				<path class="st4" d="M596.6,410.6c-22.2,14.4-44.3,28.8-66.5,43.1c-3.2,2.1-6.4,4.2-9.6,6.3c-2.7,1.7-0.2,6.1,2.5,4.3
					c22.2-14.4,44.3-28.8,66.5-43.1c3.2-2.1,6.4-4.2,9.6-6.3C601.8,413.1,599.3,408.8,596.6,410.6L596.6,410.6z"/>
			</g>
		</g>
		<g>
			<polygon class="st10" points="622.6,323.2 510.1,323.2 537.2,305.2 595.6,305.2 			"/>
			<g>
				<path class="st4" d="M622.6,320.7c-32.9,0-65.8,0-98.7,0c-4.6,0-9.2,0-13.8,0c0.4,1.6,0.8,3.1,1.3,4.7c7.5-5,14.9-10,22.4-14.9
					c1.2-0.8,3.1-1.6,4.1-2.7c0.9-1-1.2-0.4,0.2-0.1c2.9,0.7,6.9,0,9.9,0c11.1,0,22.2,0,33.3,0c4,0,8.1,0,12.1,0
					c0.7,0,1.5-0.1,2.2,0c-0.2,0-1.5-0.8-0.8-0.1c0.5,0.5,1.2,0.8,1.8,1.2c8.3,5.5,16.6,11.1,24.9,16.6c2.7,1.8,5.2-2.5,2.5-4.3
					c-7.7-5.1-15.3-10.2-23-15.4c-1.9-1.3-3.6-2.8-5.9-3.1c-3-0.4-6.3,0-9.3,0c-11.5,0-23,0-34.5,0c-5.1,0-12.3-1.5-16.7,1.3
					c-8.6,5.5-17,11.4-25.6,17.1c-2,1.3-1.3,4.7,1.3,4.7c32.9,0,65.8,0,98.7,0c4.6,0,9.2,0,13.8,0
					C625.8,325.7,625.8,320.7,622.6,320.7z"/>
			</g>
		</g>
		<g>
			<line class="st10" x1="514.2" y1="323.2" x2="514.2" y2="339.7"/>
			<g>
				<path class="st4" d="M511.7,323.2c0,5.5,0,11,0,16.4c0,3.2,5,3.2,5,0c0-5.5,0-11,0-16.4C516.7,320,511.7,320,511.7,323.2
					L511.7,323.2z"/>
			</g>
		</g>
		<g>
			<line class="st10" x1="508" y1="330.6" x2="520.3" y2="330.6"/>
			<g>
				<path class="st4" d="M508,333.1c4.1,0,8.2,0,12.3,0c3.2,0,3.2-5,0-5c-4.1,0-8.2,0-12.3,0C504.8,328.1,504.8,333.1,508,333.1
					L508,333.1z"/>
			</g>
		</g>
		<g>
			<line class="st10" x1="508" y1="336" x2="520.3" y2="336"/>
			<g>
				<path class="st4" d="M508,338.5c4.1,0,8.2,0,12.3,0c3.2,0,3.2-5,0-5c-4.1,0-8.2,0-12.3,0C504.8,333.5,504.8,338.5,508,338.5
					L508,338.5z"/>
			</g>
		</g>
		<g>
			<line class="st10" x1="618.6" y1="323.2" x2="618.6" y2="339.7"/>
			<g>
				<path class="st4" d="M616.1,323.2c0,5.5,0,11,0,16.4c0,3.2,5,3.2,5,0c0-5.5,0-11,0-16.4C621.1,320,616.1,320,616.1,323.2
					L616.1,323.2z"/>
			</g>
		</g>
		<g>
			<line class="st10" x1="612.4" y1="330.6" x2="624.7" y2="330.6"/>
			<g>
				<path class="st4" d="M612.4,333.1c4.1,0,8.2,0,12.3,0c3.2,0,3.2-5,0-5c-4.1,0-8.2,0-12.3,0C609.2,328.1,609.2,333.1,612.4,333.1
					L612.4,333.1z"/>
			</g>
		</g>
		<g>
			<line class="st10" x1="612.4" y1="336" x2="624.7" y2="336"/>
			<g>
				<path class="st4" d="M612.4,338.5c4.1,0,8.2,0,12.3,0c3.2,0,3.2-5,0-5c-4.1,0-8.2,0-12.3,0C609.2,333.5,609.2,338.5,612.4,338.5
					L612.4,338.5z"/>
			</g>
		</g>
		<path class="st11" d="M521.3,488.9c0,1-0.8,1.8-1.8,1.8h-10.7c-1,0-1.8-0.8-1.8-1.8v-2c0-1,0.8-1.8,1.8-1.8h10.7
			c1,0,1.8,0.8,1.8,1.8V488.9z"/>
		<path class="st11" d="M625.7,488.9c0,1-0.8,1.8-1.8,1.8h-10.7c-1,0-1.8-0.8-1.8-1.8v-2c0-1,0.8-1.8,1.8-1.8h10.7
			c1,0,1.8,0.8,1.8,1.8V488.9z"/>
	</g>
	<g>
		<g>
			<path class="st4" d="M485.7,144.1c-1.7-0.4-2.9-1.7-2.6-3l0.5-2.2c0.3-1.3,1.9-2.1,3.6-1.7l14.1,3c1.7,0.4,2.9,1.7,2.6,3
				l-0.5,2.2c-0.3,1.3-1.9,2.1-3.6,1.7L485.7,144.1z"/>
			<path class="st4" d="M472.2,206.5c-1.7-0.4-2.9-1.7-2.6-3l0.5-2.2c0.3-1.3,1.9-2.1,3.6-1.7l14.1,3c1.7,0.4,2.9,1.7,2.6,3
				l-0.5,2.2c-0.3,1.3-1.9,2.1-3.6,1.7L472.2,206.5z"/>
			<path class="st4" d="M464.4,200.5c-1.7-0.4-2.9-1.7-2.6-3l12.1-56.3c0.3-1.3,1.9-2.1,3.6-1.7l31.5,6.8c1.7,0.4,2.9,1.7,2.6,3
				l-12.1,56.3c-0.3,1.3-1.9,2.1-3.6,1.7L464.4,200.5z"/>
			<path class="st12" d="M492.4,156c4.3,1,9,1.5,13.3,2.9l1.6-7.5c0.3-1.2-0.8-2.4-2.3-2.7l-24.7-5.3c-1.5-0.3-3,0.4-3.2,1.5
				l-1.6,7.4C481,154,486.8,154.7,492.4,156z"/>
			<path class="st13" d="M500.8,181.8l2.1-9.9c-10.1-2-20.1-4.5-30.2-6.7l-2.2,10.1L500.8,181.8z"/>
			<path class="st13" d="M467.7,188.2l-1.6,7.3c-0.3,1.2,0.8,2.4,2.3,2.7l24.7,5.3c1.5,0.3,3-0.4,3.2-1.5l1.6-7.3
				C488,192.5,477.9,188.9,467.7,188.2z"/>
			<path class="st13" d="M498.3,193.3l2.2-10.2l-30.2-6.5l-2.2,10.2C478.2,187.6,488.3,191.1,498.3,193.3z"/>
			<path class="st12" d="M503.2,170.5l2.2-10.2c-2.6-0.8-5.4-1.1-8.1-1.7c-2.6-0.6-5.2-1.2-7.8-1.8c-4.8-1-9.7-1.7-14.4-3.1
				l-2.2,10.2C483.1,165.9,493.1,168.5,503.2,170.5z"/>
		</g>
		
			<rect x="489.3" y="138.8" transform="matrix(-0.2107 0.9776 -0.9776 -0.2107 746.5198 -290.2228)" class="st4" width="2.3" height="35"/>
		
			<rect x="486.8" y="150.2" transform="matrix(-0.2107 0.9776 -0.9776 -0.2107 754.6857 -274.0283)" class="st4" width="2.3" height="35"/>
		
			<rect x="484.4" y="161.6" transform="matrix(-0.2107 0.9776 -0.9776 -0.2107 762.8539 -257.8289)" class="st4" width="2.3" height="35"/>
		
			<rect x="481.9" y="173" transform="matrix(-0.2107 0.9776 -0.9776 -0.2107 771.0212 -241.6314)" class="st4" width="2.3" height="35"/>
	</g>
	<g>
		<g>
			<path class="st14" d="M696.9,198.3l38.8,46.6L676,255.2L696.9,198.3 M696.9,189.9c-0.5,0-1,0-1.4,0.1c-3,0.5-5.4,2.6-6.5,5.4
				l-20.9,56.9c-1,2.8-0.5,6,1.4,8.3c1.6,1.9,4,3,6.4,3c0.5,0,1,0,1.4-0.1l59.7-10.4c3-0.5,5.4-2.6,6.5-5.4c1-2.8,0.5-6-1.4-8.3
				l-38.8-46.6C701.7,191,699.3,189.9,696.9,189.9L696.9,189.9z"/>
		</g>
		<g>
			<line class="st15" x1="699.4" y1="213.3" x2="693.8" y2="231.8"/>
			<line class="st15" x1="693.8" y1="231.8" x2="708.9" y2="223.5"/>
			<line class="st15" x1="708.9" y1="223.5" x2="703.8" y2="241.8"/>
			<polygon class="st15" points="708.2,239.9 703.1,245 701.1,238 			"/>
		</g>
	</g>
	<g>
		<g>
			
				<rect x="507.1" y="712.9" transform="matrix(0.9621 -0.2728 0.2728 0.9621 -179.5526 167.6637)" class="st4" width="12" height="33"/>
			
				<rect x="501.1" y="741.6" transform="matrix(0.9621 -0.2728 0.2728 0.9621 -183.2717 169.3)" class="st4" width="32" height="4"/>
		</g>
		<g>
			<g>
				<path class="st4" d="M529,611.5c0.9,0,1.7,0.6,1.9,1.4l24.8,87.6c0.3,1-0.3,2.1-1.4,2.4L464,728.6c-0.2,0.1-0.4,0.1-0.6,0.1
					c-0.9,0-1.7-0.6-1.9-1.4l-24.8-87.6c-0.3-1,0.3-2.1,1.4-2.4l90.4-25.6C528.7,611.5,528.9,611.5,529,611.5 M529,606.5
					c-0.6,0-1.3,0.1-1.9,0.3l-90.4,25.6c-1.8,0.5-3.3,1.7-4.2,3.3c-0.9,1.6-1.2,3.5-0.6,5.3l24.8,87.6c0.8,3,3.6,5.1,6.7,5.1
					c0.6,0,1.3-0.1,1.9-0.3l90.4-25.6c3.7-1.1,5.9-4.9,4.8-8.6l-24.8-87.6C534.9,608.6,532.2,606.5,529,606.5L529,606.5z"/>
			</g>
		</g>
		<g>
			
				<rect x="467.8" y="630.2" transform="matrix(0.9621 -0.2728 0.2728 0.9621 -167.1105 153.762)" class="st4" width="3" height="95"/>
			
				<rect x="494.7" y="622.6" transform="matrix(0.9621 -0.2728 0.2728 0.9621 -164.004 160.8219)" class="st4" width="3" height="95"/>
			
				<rect x="521.7" y="615" transform="matrix(0.9621 -0.2728 0.2728 0.9621 -160.8976 167.8816)" class="st4" width="3" height="95"/>
			
				<rect x="502.4" y="648" transform="matrix(-0.2728 -0.9621 0.9621 -0.2728 -29.2244 1371.9734)" class="st4" width="3" height="98"/>
			
				<rect x="494.7" y="621.1" transform="matrix(-0.2728 -0.9621 0.9621 -0.2728 -13.0331 1330.3362)" class="st4" width="3" height="98"/>
			
				<rect x="487.1" y="594.2" transform="matrix(-0.2728 -0.9621 0.9621 -0.2728 3.1583 1288.6989)" class="st4" width="3" height="98"/>
		</g>
	</g>
</g>
</svg>
